<svg xmlns="http://www.w3.org/2000/svg" viewBox="0 0 939 939"><defs><style>.cls-1{fill:#fff;}.cls-1,.cls-2,.cls-3{stroke:#666;stroke-miterlimit:10;stroke-width:44px;}.cls-2{fill:#c1272d;}.cls-3{fill:#009245;}</style></defs><g id="Layer_2" data-name="Layer 2"><g id="Layer_1-2" data-name="Layer 1"><path class="cls-1" d="M297.92,56.08A446.22,446.22,0,0,1,469.5,22C716.65,22,917,222.35,917,469.5"/><path class="cls-2" d="M917,469.5C917,222.35,716.65,22,469.5,22A446.22,446.22,0,0,0,297.92,56.08L469.5,469.5Z"/><path class="cls-1" d="M917,469.5C917,716.65,716.65,917,469.5,917a446,446,0,0,1-171.3-34"/><path class="cls-3" d="M298.2,883a446,446,0,0,0,171.3,34C716.65,917,917,716.65,917,469.5H469.5Z"/><path class="cls-1" d="M298.2,883C136.05,815.79,22,656,22,469.5S135.92,123.39,297.92,56.08"/><path class="cls-1" d="M22,469.5C22,656,136.05,815.79,298.2,883L469.5,469.5,297.92,56.08C135.92,123.39,22,283.14,22,469.5Z"/></g></g></svg>